# xmcd
#
# Track frame offsets:
#	150
#	16232
#	32733
#	54756
#	71164
#	89794
#	105414
#	118565
#	133655
#	150933
#	168555
#	184668
#	200847
#	218670
#	234814
#
# Disc length: 3650 seconds
#
# Revision: 0
# Processed by: cddbd v1.4PL0 Copyright (c) Steve Scherf et al.
# Submitted via: EasyCDDAExtractor 4.6.0.1
#
DISCID=c30e400f
DTITLE=Shania Twain - Come On Over
DYEAR=1900
DGENRE=
TTITLE0=You're Still One
TTITLE1=When
TTITLE2=From This Moment On
TTITLE3=Black Eyes, Blue Tears
TTITLE4=I Won't Leave You Lonely
TTITLE5=I'm Holdin' On To Love
TTITLE6=Come On Over
TTITLE7=You've Got A Way
TTITLE8=Whatever You Do ! Don't !
TTITLE9=Man ! I Feek Like A Woman !
TTITLE10=Love Gets Me Every Time
TTITLE11=Don't Be Stupid
TTITLE12=That Don't Impress Me Much
TTITLE13=Honey, I'm Home
TTITLE14=If You Wanna Touch Her, Ask ! - Rock This Country
EXTD=
EXTT0=
EXTT1=
EXTT2=
EXTT3=
EXTT4=
EXTT5=
EXTT6=
EXTT7=
EXTT8=
EXTT9=
EXTT10=
EXTT11=
EXTT12=
EXTT13=
EXTT14=
PLAYORDER=
